<svg width="60" height="60" viewBox="0 0 60 60" fill="none" xmlns="http://www.w3.org/2000/svg"><g clip-path="url(#clip0_264:824)" fill="#9B6636"><path d="M36.786 24.427l-9.015 8.515-4.327-4.451a1.247 1.247 0 10-1.788 1.737l5.19 5.327a1.27 1.27 0 001.762.037l9.916-9.352a1.246 1.246 0 00.05-1.763 1.276 1.276 0 00-1.788-.05z"></path><path d="M30.097 11.322c-10.303 0-18.681 8.378-18.681 18.681s8.378 18.681 18.68 18.681c10.304 0 18.682-8.377 18.682-18.681 0-10.303-8.378-18.68-18.681-18.68zm0 34.861c-8.928 0-16.18-7.265-16.18-16.18s7.252-16.18 16.18-16.18c8.936 0 16.18 7.244 16.18 16.18s-7.244 16.18-16.18 16.18z"></path><path d="M55.804 23.126l.413-7.415a1.248 1.248 0 00-.688-1.188l-6.602-3.338-3.338-6.603a1.269 1.269 0 00-1.188-.687l-7.428.4-6.19-4.089a1.25 1.25 0 00-1.375 0l-6.19 4.09-7.414-.413a1.245 1.245 0 00-1.188.687l-3.338 6.602-6.602 3.339a1.267 1.267 0 00-.688 1.188l.412 7.415-4.088 6.19a1.25 1.25 0 000 1.375l4.076 6.201-.413 7.415a1.25 1.25 0 00.688 1.188l6.602 3.338 3.339 6.603c.226.442.69.71 1.188.687l7.415-.412 6.189 4.088c.415.284.96.284 1.375 0l6.19-4.088 7.415.412c.498.03.964-.241 1.188-.687l3.338-6.603 6.602-3.338a1.27 1.27 0 00.688-1.188l-.413-7.415 4.089-6.19a1.25 1.25 0 000-1.375l-4.064-6.19zm-2.326 12.729a1.174 1.174 0 00-.2.763l.388 7.014-6.24 3.151a1.25 1.25 0 00-.55.55l-3.15 6.24-7.015-.387c-.269-.01-.534.06-.763.2l-5.852 3.863-5.852-3.864a1.237 1.237 0 00-.687-.212h-.063l-7.015.388-3.15-6.24a1.231 1.231 0 00-.551-.55l-6.252-3.139.388-7.014c.01-.269-.06-.534-.2-.763L2.85 30.003l3.864-5.852a1.17 1.17 0 00.2-.762l-.388-7.015 6.24-3.151c.238-.12.43-.312.55-.55l3.15-6.24 7.016.388c.268.01.533-.06.762-.2l5.852-3.864 5.852 3.864c.224.153.493.223.763.2l7.014-.388 3.152 6.24c.119.238.312.43.55.55l6.239 3.15-.387 7.016c-.01.268.06.533.2.762l3.863 5.852-3.864 5.852z"></path></g><defs><clipPath id="clip0_264:824"><path fill="#fff" d="M0 0h60v60H0z"></path></clipPath></defs></svg>