<svg width="60" height="60" viewBox="0 0 60 60" fill="none" xmlns="http://www.w3.org/2000/svg"><g clip-path="url(#clip0_264:778)" fill="#9B6636"><path d="M49.627 58a1.179 1.179 0 00-.828-.344c-.308 0-.61.126-.829.344a1.18 1.18 0 00-.343.828c0 .308.125.61.343.829.218.218.52.343.829.343a1.175 1.175 0 00.828-2zm9.556-38.33a4.583 4.583 0 00-3.008-1.937 4.634 4.634 0 00-4.868 2.36V7.729a4.549 4.549 0 00-4.544-4.543c-.82 0-1.588.219-2.253.6A4.55 4.55 0 0040.03 0a4.55 4.55 0 00-4.478 3.785 4.514 4.514 0 00-2.253-.6 4.55 4.55 0 00-4.522 4.099 4.515 4.515 0 00-2.21-.576 4.549 4.549 0 00-4.544 4.544 1.172 1.172 0 002.344 0c0-1.213.987-2.2 2.2-2.2 1.136 0 2.074.865 2.188 1.972v3.124a1.172 1.172 0 102.344 0v-6.42c0-1.213.987-2.2 2.2-2.2 1.136 0 2.074.866 2.188 1.972v9.117c0 .054.012.444.012.444a1.172 1.172 0 002.344 0V7.728c0-.105-.005-.208-.012-.312V4.544c0-1.213.987-2.2 2.2-2.2s2.2.987 2.2 2.2v2.872a4.597 4.597 0 00-.012.312v16.48a1.172 1.172 0 002.344 0L44.574 7.5a2.203 2.203 0 012.189-1.972c1.213 0 2.2.987 2.2 2.2v17.335a1.65 1.65 0 001.468 1.657 1.65 1.65 0 001.821-1.26l.912-3.72a2.279 2.279 0 012.604-1.699 2.257 2.257 0 011.481.954c.349.508.475 1.121.355 1.726l-1.765 8.953a15.298 15.298 0 01-4.221 7.9l-3.646 3.635c-.22.22-.344.519-.344.83v10.453a1.172 1.172 0 002.344 0v-9.966l3.3-3.292a17.634 17.634 0 004.867-9.106l1.765-8.954a4.584 4.584 0 00-.721-3.504zM34.757 36.21c-.647 0-1.172.526-1.172 1.173v3.437c0 3.854-1.503 7.475-4.232 10.197l-2.22 2.214c-.221.22-.345.519-.345.83v4.767a1.172 1.172 0 102.344 0v-4.28l1.876-1.871a16.632 16.632 0 004.921-11.857v-3.437c0-.647-.525-1.172-1.172-1.172z"></path><path d="M35.586 32.394a1.18 1.18 0 00-.828-.343c-.308 0-.61.125-.829.343a1.18 1.18 0 00-.343.829c0 .308.125.61.343.828.218.218.52.343.829.343.308 0 .61-.125.828-.343a1.18 1.18 0 00.344-.828c0-.309-.126-.61-.344-.829zM31.579 18.81a4.32 4.32 0 00-2.028.503 4.355 4.355 0 00-4.317-3.824c-.75 0-1.457.19-2.074.527a4.356 4.356 0 00-4.27-3.529 4.356 4.356 0 00-4.272 3.529 4.322 4.322 0 00-2.073-.527 4.355 4.355 0 00-4.35 4.35V31.24a4.435 4.435 0 00-4.533-2.04 4.387 4.387 0 00-2.879 1.855 4.386 4.386 0 00-.69 3.353l1.664 8.439a16.687 16.687 0 004.605 8.617l3.09 3.082v4.281a1.172 1.172 0 002.345 0V54.06c0-.311-.124-.61-.345-.83l-3.435-3.426a14.35 14.35 0 01-3.96-7.41l-1.665-8.44a2.06 2.06 0 01.325-1.575 2.06 2.06 0 011.352-.87 2.081 2.081 0 012.377 1.55l.86 3.507c.2.818.951 1.339 1.79 1.237a1.622 1.622 0 001.443-1.628V19.838c0-1.106.9-2.006 2.006-2.006a2.01 2.01 0 011.995 1.796v8.588c0 .647.524 1.172 1.171 1.172h.012c.647 0 1.171-.525 1.171-1.172v-8.378c0-.1-.004-.198-.01-.296v-2.705c0-1.106.9-2.006 2.005-2.006 1.107 0 2.006.9 2.006 2.006v2.705a4.333 4.333 0 00-.01.296v8.378c0 .647.524 1.172 1.171 1.172h.011c.648 0 1.172-.525 1.172-1.172v-8.588a2.009 2.009 0 011.995-1.796c1.106 0 2.006.9 2.006 2.006l-.011 8.378c0 .647.525 1.172 1.172 1.172h.011c.647 0 1.172-.525 1.172-1.172V22.95a2.009 2.009 0 011.995-1.796c1.106 0 2.006.9 2.006 2.006v5.474a1.172 1.172 0 002.344 0V23.16a4.355 4.355 0 00-4.35-4.35zM17.446 6.525L11.267.346A1.172 1.172 0 009.61 2.003l6.179 6.18a1.168 1.168 0 001.657 0c.458-.458.458-1.2 0-1.658zm-4.144 3.141h-2.86a1.172 1.172 0 000 2.344h2.86a1.172 1.172 0 000-2.344zM20.047 0c-.647 0-1.172.525-1.172 1.172v2.955a1.172 1.172 0 102.344 0V1.172C21.219.525 20.694 0 20.047 0z"></path></g><defs><clipPath id="clip0_264:778"><path fill="#fff" d="M0 0h60v60H0z"></path></clipPath></defs></svg>