<svg width="1045" height="552" viewBox="0 0 1045 552" fill="none" xmlns="http://www.w3.org/2000/svg">
<path d="M494 27.5L542.5 3.5V36.5L446 84.5L438.5 116.5L542.5 67V198L347 293.5L362 234L499 166.5L504.5 124.5L379 183.5L413.5 64L466.5 36.5V3.5H494V27.5Z" fill="#DC6531"/>
<path d="M551.5 34V1.5L680 66.5L700 135.5L657 118L651 84L551.5 34Z" fill="white" stroke="white"/>
<path d="M554 200V67.5L700 136L684 144.744L686 146.5L715 175.5L749.5 295.5L700 270.5L670.5 175.5L657 159.5L591 125L595.5 167L678.5 209L684 264L554 200Z" fill="white"/>
<rect x="520" y="221" width="23" height="20" fill="#DC6531"/>
<rect x="544" y="221" width="23" height="20" fill="#DC6531"/>
<rect x="544" y="242" width="23" height="20" fill="#DC6531"/>
<rect x="520" y="242" width="23" height="20" fill="#DC6531"/>
<path d="M19.8779 379.667C23.6963 381.823 27.5596 383.777 31.4678 385.529C35.4209 387.236 39.5088 388.696 43.7314 389.909C47.9541 391.077 52.3789 391.976 57.0059 392.604C61.6777 393.233 66.6416 393.548 71.8975 393.548C78.2314 393.548 83.6221 393.144 88.0693 392.335C92.5166 391.481 96.1328 390.336 98.918 388.898C101.748 387.416 103.792 385.664 105.05 383.643C106.353 381.621 107.004 379.42 107.004 377.039C107.004 373.221 105.409 370.211 102.22 368.01C99.0303 365.764 94.1113 364.641 87.4629 364.641C84.543 364.641 81.4658 364.843 78.2314 365.247C74.9971 365.606 71.7178 366.011 68.3936 366.46C65.1143 366.909 61.8574 367.336 58.623 367.74C55.4336 368.1 52.4238 368.279 49.5938 368.279C44.877 368.279 40.3398 367.673 35.9824 366.46C31.6699 365.247 27.8291 363.428 24.46 361.002C21.1357 358.576 18.4854 355.544 16.5088 351.905C14.5322 348.267 13.5439 344.021 13.5439 339.17C13.5439 336.295 13.9258 333.442 14.6895 330.612C15.498 327.782 16.7559 325.087 18.4629 322.526C20.2148 319.921 22.4609 317.518 25.2012 315.316C27.9414 313.07 31.2432 311.139 35.1064 309.521C39.0146 307.904 43.5068 306.646 48.583 305.748C53.7041 304.805 59.5215 304.333 66.0352 304.333C70.752 304.333 75.4912 304.603 80.2529 305.142C85.0146 305.636 89.6416 306.354 94.1338 307.298C98.6709 308.241 103.028 309.387 107.206 310.734C111.384 312.037 115.27 313.497 118.863 315.114L109.497 332.364C106.532 331.062 103.343 329.871 99.9287 328.793C96.5146 327.67 92.9434 326.704 89.2148 325.896C85.4863 325.087 81.623 324.458 77.625 324.009C73.6719 323.515 69.6289 323.268 65.4961 323.268C59.6113 323.268 54.7598 323.694 50.9414 324.548C47.168 325.401 44.1582 326.502 41.9121 327.85C39.666 329.152 38.0938 330.635 37.1953 332.297C36.3418 333.914 35.915 335.531 35.915 337.148C35.915 340.293 37.3301 342.876 40.1602 344.897C42.9902 346.874 47.3027 347.862 53.0977 347.862C55.4336 347.862 58.1064 347.705 61.1162 347.391C64.1709 347.031 67.3604 346.649 70.6846 346.245C74.0537 345.841 77.4678 345.481 80.9268 345.167C84.4307 344.808 87.8223 344.628 91.1016 344.628C97.3008 344.628 102.781 345.324 107.543 346.717C112.35 348.109 116.37 350.108 119.604 352.714C122.839 355.274 125.287 358.396 126.949 362.08C128.611 365.719 129.442 369.807 129.442 374.344C129.442 380.408 128.027 385.821 125.197 390.583C122.412 395.3 118.414 399.298 113.203 402.577C108.037 405.812 101.793 408.282 94.4707 409.989C87.1484 411.651 78.9951 412.482 70.0107 412.482C64.0811 412.482 58.2861 412.101 52.626 411.337C46.9658 410.618 41.5303 409.585 36.3193 408.237C31.1533 406.845 26.2119 405.205 21.4951 403.318C16.8232 401.387 12.4883 399.275 8.49023 396.984L19.8779 379.667ZM188.874 305.681H211.515L262.456 411H240.018L231.595 393.278H170.074L161.921 411H139.415L188.874 305.681ZM223.172 375.691L200.396 327.85L178.228 375.691H223.172ZM278.695 305.681H300.056L365.687 340.046V305.681H387.047V411H365.687V362.687L300.056 328.523V411H278.695V305.681ZM409.62 357.363C409.62 349.951 411.013 343.033 413.798 336.609C416.583 330.141 420.648 324.525 425.994 319.764C431.34 315.002 437.898 311.251 445.67 308.511C453.486 305.771 462.426 304.4 472.488 304.4C476.127 304.4 479.766 304.603 483.404 305.007C487.088 305.366 490.704 305.95 494.253 306.759C497.847 307.567 501.328 308.601 504.697 309.858C508.111 311.071 511.346 312.531 514.4 314.238L504.562 330.41C502.721 329.332 500.632 328.366 498.296 327.513C495.96 326.614 493.444 325.873 490.749 325.289C488.099 324.66 485.336 324.188 482.461 323.874C479.631 323.56 476.778 323.402 473.903 323.402C467.255 323.402 461.325 324.256 456.114 325.963C450.903 327.625 446.501 329.983 442.907 333.038C439.313 336.048 436.573 339.664 434.687 343.887C432.8 348.109 431.856 352.736 431.856 357.768C431.856 362.979 432.845 367.763 434.821 372.12C436.798 376.478 439.605 380.229 443.244 383.373C446.883 386.518 451.285 388.988 456.451 390.785C461.617 392.537 467.39 393.413 473.769 393.413C478.845 393.413 483.494 392.852 487.717 391.729C491.939 390.561 495.623 388.921 498.768 386.81C501.912 384.698 504.473 382.16 506.449 379.195C508.426 376.186 509.729 372.816 510.357 369.088H473.566V351.501H529.562V351.568L529.629 351.501C530.752 356.892 531.089 362.147 530.64 367.269C530.235 372.345 529.067 377.151 527.136 381.688C525.249 386.181 522.644 390.313 519.319 394.087C515.995 397.86 512.02 401.117 507.393 403.857C502.766 406.553 497.51 408.664 491.625 410.191C485.74 411.674 479.294 412.415 472.286 412.415C462.493 412.415 453.711 410.978 445.939 408.103C438.213 405.228 431.654 401.297 426.264 396.311C420.873 391.324 416.74 385.484 413.865 378.791C411.035 372.098 409.62 364.955 409.62 357.363ZM554.763 305.681H576.123V333.173H641.619V305.681H663.047V411H641.619V351.434H576.123V411H554.763V305.681ZM692.965 305.681H782.651V324.413H714.325V345.437H774.835V363.023H714.325V392.335H784.066V411H692.965V305.681ZM807.785 305.681H861.354C869.44 305.681 876.448 306.534 882.378 308.241C888.308 309.903 893.227 312.329 897.135 315.519C901.043 318.708 903.94 322.594 905.827 327.176C907.759 331.758 908.725 336.946 908.725 342.741C908.725 346.649 908.253 350.378 907.31 353.927C906.366 357.431 904.906 360.665 902.93 363.63C900.998 366.595 898.55 369.245 895.585 371.581C892.62 373.872 889.139 375.781 885.141 377.309L908.051 411H881.906L862.096 381.082H861.489L829.146 381.015V411H807.785V305.681ZM861.894 362.552C865.937 362.552 869.463 362.08 872.473 361.137C875.527 360.193 878.065 358.868 880.087 357.161C882.153 355.454 883.681 353.388 884.669 350.962C885.702 348.491 886.219 345.751 886.219 342.741C886.219 336.856 884.197 332.319 880.154 329.13C876.111 325.896 870.024 324.278 861.894 324.278H829.146V362.552H861.894ZM969.976 305.681H992.616L1043.56 411H1021.12L1012.7 393.278H951.176L943.022 411H920.517L969.976 305.681ZM1004.27 375.691L981.498 327.85L959.329 375.691H1004.27Z" fill="white"/>
<path d="M291.614 450.308C298.582 450.308 303.834 451.348 307.37 453.428C310.958 455.456 312.752 459.018 312.752 464.114C312.752 467.39 311.842 470.12 310.022 472.304C308.202 474.436 305.576 475.814 302.144 476.438V476.828C304.484 477.192 306.59 477.868 308.462 478.856C310.386 479.844 311.894 481.248 312.986 483.068C314.078 484.888 314.624 487.254 314.624 490.166C314.624 495.21 312.882 499.11 309.398 501.866C305.966 504.622 301.26 506 295.28 506H275.702V450.308H291.614ZM293.018 474.02C297.802 474.02 301.078 473.266 302.846 471.758C304.614 470.198 305.498 467.91 305.498 464.894C305.498 461.826 304.406 459.642 302.222 458.342C300.09 456.99 296.658 456.314 291.926 456.314H282.722V474.02H293.018ZM282.722 479.87V500.072H293.954C298.894 500.072 302.326 499.11 304.25 497.186C306.174 495.262 307.136 492.74 307.136 489.62C307.136 486.708 306.122 484.368 304.094 482.6C302.118 480.78 298.556 479.87 293.408 479.87H282.722ZM368.786 486.344C368.786 490.192 368.006 493.676 366.446 496.796C364.886 499.864 362.494 502.308 359.27 504.128C356.098 505.896 352.042 506.78 347.102 506.78C340.186 506.78 334.908 504.908 331.268 501.164C327.68 497.368 325.886 492.376 325.886 486.188V450.308H332.906V486.422C332.906 490.946 334.102 494.456 336.494 496.952C338.938 499.448 342.604 500.696 347.492 500.696C352.536 500.696 356.176 499.37 358.412 496.718C360.7 494.014 361.844 490.556 361.844 486.344V450.308H368.786V486.344ZM399.163 506H379.039V501.944L385.591 500.462V455.924L379.039 454.364V450.308H399.163V454.364L392.611 455.924V500.462L399.163 501.944V506ZM409.917 506V450.308H416.937V499.76H441.273V506H409.917ZM495.437 477.608C495.437 487.02 492.863 494.118 487.715 498.902C482.619 503.634 475.495 506 466.343 506H450.821V450.308H467.981C473.597 450.308 478.459 451.348 482.567 453.428C486.675 455.508 489.847 458.576 492.083 462.632C494.319 466.636 495.437 471.628 495.437 477.608ZM488.027 477.842C488.027 470.406 486.181 464.972 482.489 461.54C478.849 458.056 473.675 456.314 466.967 456.314H457.841V499.994H465.407C480.487 499.994 488.027 492.61 488.027 477.842ZM538.919 506H507.797V450.308H538.919V456.47H514.817V473.864H537.515V479.948H514.817V499.838H538.919V506ZM566.505 450.308C573.421 450.308 578.517 451.634 581.793 454.286C585.121 456.886 586.785 460.838 586.785 466.142C586.785 469.106 586.239 471.576 585.147 473.552C584.055 475.528 582.651 477.114 580.935 478.31C579.271 479.454 577.503 480.364 575.631 481.04L590.919 506H582.729L569.235 482.99H558.159V506H551.139V450.308H566.505ZM566.115 456.392H558.159V477.062H566.505C571.029 477.062 574.331 476.178 576.411 474.41C578.491 472.59 579.531 469.938 579.531 466.454C579.531 462.814 578.439 460.24 576.255 458.732C574.071 457.172 570.691 456.392 566.115 456.392ZM631.251 491.102C631.251 496.042 629.457 499.89 625.869 502.646C622.281 505.402 617.445 506.78 611.361 506.78C608.241 506.78 605.355 506.546 602.703 506.078C600.051 505.61 597.841 504.96 596.073 504.128V497.42C597.945 498.252 600.259 499.006 603.015 499.682C605.823 500.358 608.709 500.696 611.673 500.696C615.833 500.696 618.953 499.89 621.033 498.278C623.165 496.666 624.231 494.482 624.231 491.726C624.231 489.906 623.841 488.372 623.061 487.124C622.281 485.876 620.929 484.732 619.005 483.692C617.133 482.6 614.507 481.456 611.127 480.26C606.395 478.544 602.807 476.438 600.363 473.942C597.971 471.446 596.775 468.04 596.775 463.724C596.775 460.76 597.529 458.238 599.037 456.158C600.545 454.026 602.625 452.388 605.277 451.244C607.981 450.1 611.075 449.528 614.559 449.528C617.627 449.528 620.435 449.814 622.983 450.386C625.531 450.958 627.845 451.712 629.925 452.648L627.741 458.654C625.817 457.822 623.711 457.12 621.423 456.548C619.187 455.976 616.847 455.69 614.403 455.69C610.919 455.69 608.293 456.444 606.525 457.952C604.757 459.408 603.873 461.358 603.873 463.802C603.873 465.674 604.263 467.234 605.043 468.482C605.823 469.73 607.097 470.848 608.865 471.836C610.633 472.824 613.025 473.89 616.041 475.034C619.317 476.23 622.073 477.53 624.309 478.934C626.597 480.286 628.313 481.924 629.457 483.848C630.653 485.772 631.251 488.19 631.251 491.102ZM662.731 506V450.308H669.751V499.76H694.087V506H662.731ZM719.74 506H712.72V456.47H695.326V450.308H737.056V456.47H719.74V506ZM790.07 477.608C790.07 487.02 787.496 494.118 782.348 498.902C777.252 503.634 770.128 506 760.976 506H745.454V450.308H762.614C768.23 450.308 773.092 451.348 777.2 453.428C781.308 455.508 784.48 458.576 786.716 462.632C788.952 466.636 790.07 471.628 790.07 477.608ZM782.66 477.842C782.66 470.406 780.814 464.972 777.122 461.54C773.482 458.056 768.308 456.314 761.6 456.314H752.474V499.994H760.04C775.12 499.994 782.66 492.61 782.66 477.842Z" fill="white"/>
<path d="M681.97 263.434L701 271L680.313 206.067L677.873 206.473L681.97 263.434Z" fill="white"/>
</svg>
