<svg width="60" height="60" viewBox="0 0 60 60" fill="none" xmlns="http://www.w3.org/2000/svg"><path d="M25.313 58.125c3.299 0 6.03-2.45 6.487-5.625h10l-1.213 1.212 1.326 1.326 2.812-2.813a.934.934 0 000-1.325l-2.812-2.813-1.326 1.326 1.212 1.212H31.8C31.343 47.45 28.612 45 25.312 45a6.57 6.57 0 00-6.562 6.563 6.57 6.57 0 006.563 6.562zm0-11.25A4.693 4.693 0 0130 51.563a4.693 4.693 0 01-4.688 4.687 4.693 4.693 0 01-4.687-4.688 4.693 4.693 0 014.688-4.687z" fill="#9B6636"></path><path d="M51.563 58.125a6.57 6.57 0 006.562-6.563A6.57 6.57 0 0051.562 45 6.57 6.57 0 0045 51.563a6.57 6.57 0 006.563 6.562zm0-11.25a4.693 4.693 0 014.687 4.688 4.693 4.693 0 01-4.688 4.687 4.693 4.693 0 01-4.687-4.688 4.693 4.693 0 014.688-4.687zm-30-23.437c-3.3 0-6.03 2.45-6.488 5.625h-1.481c-6.462 0-11.719 5.256-11.719 11.718S7.132 52.5 13.594 52.5h1.955l-1.212 1.212 1.326 1.326 2.812-2.813a.934.934 0 000-1.325l-2.812-2.813-1.326 1.326 1.212 1.212h-1.955c-5.428 0-9.844-4.416-9.844-9.844 0-5.428 4.416-9.843 9.844-9.843h1.48c.458 3.174 3.19 5.625 6.489 5.625A6.57 6.57 0 0028.125 30a6.57 6.57 0 00-6.563-6.563zm0 11.25A4.693 4.693 0 0116.875 30a4.693 4.693 0 014.688-4.688A4.693 4.693 0 0126.25 30a4.693 4.693 0 01-4.688 4.688zm3.475-29.726l-1.326 1.326L24.924 7.5h-9.999c-.457-3.175-3.188-5.625-6.488-5.625a6.57 6.57 0 00-6.562 6.563A6.57 6.57 0 008.438 15c3.299 0 6.03-2.45 6.487-5.625h10l-1.213 1.212 1.326 1.326L27.85 9.1a.935.935 0 000-1.325l-2.812-2.813zm-16.6 8.163A4.693 4.693 0 013.75 8.437 4.693 4.693 0 018.438 3.75a4.693 4.693 0 014.687 4.688 4.693 4.693 0 01-4.688 4.687z" fill="#9B6636"></path><path d="M58.125 19.219c0-6.462-5.257-11.719-11.719-11.719h-5.23c-.458-3.175-3.19-5.625-6.489-5.625a6.57 6.57 0 00-6.562 6.563A6.57 6.57 0 0034.688 15c3.299 0 6.03-2.45 6.487-5.625h5.231c5.428 0 9.844 4.416 9.844 9.844 0 5.427-4.416 9.843-9.844 9.843h-15.08l1.212-1.212-1.326-1.325-2.812 2.812a.934.934 0 000 1.326l2.812 2.812 1.326-1.325-1.212-1.212h15.08c6.462 0 11.719-5.258 11.719-11.72zm-23.438-6.094A4.693 4.693 0 0130 8.437a4.693 4.693 0 014.688-4.687 4.693 4.693 0 014.687 4.688 4.693 4.693 0 01-4.688 4.687z" fill="#9B6636"></path></svg>